<?xml version="1.0" encoding="UTF-8" standalone="no"?>
<!-- Created with Inkscape (http://www.inkscape.org/) -->

<svg
   width="66.663734mm"
   height="17mm"
   viewBox="0 0 66.663734 17"
   version="1.1"
   id="svg1"
   xmlns:inkscape="http://www.inkscape.org/namespaces/inkscape"
   xmlns:sodipodi="http://sodipodi.sourceforge.net/DTD/sodipodi-0.dtd"
   xmlns="http://www.w3.org/2000/svg"
   xmlns:svg="http://www.w3.org/2000/svg">
  <sodipodi:namedview
     id="namedview1"
     pagecolor="#ffffff"
     bordercolor="#000000"
     borderopacity="0.25"
     inkscape:showpageshadow="2"
     inkscape:pageopacity="0.0"
     inkscape:pagecheckerboard="0"
     inkscape:deskcolor="#d1d1d1"
     inkscape:document-units="mm">
    <inkscape:page
       x="0"
       y="0"
       width="66.663734"
       height="17"
       id="page2"
       margin="0"
       bleed="0" />
  </sodipodi:namedview>
  <defs
     id="defs1" />
  <g
     inkscape:label="Layer 1"
     inkscape:groupmode="layer"
     id="layer1"
     transform="translate(-18.520834,-31.75)">
    <path
       id="Pfad_21586"
       data-name="Pfad 21586"
       d="m 41.239693,33.822081 h -1.395112 v 1.652258 h 1.395112 a 0.75249629,0.75249629 0 0 0 0.841663,-0.826002 0.7560327,0.7560327 0 0 0 -0.841663,-0.826256 m 1.88465,0.826256 c 0,0.833581 -0.384962,1.395111 -1.050564,1.619672 a 1.1702972,1.1702972 0 0 1 0.256642,0.344801 l 0.874502,1.692421 c 0.08791,0.15156 0.06391,0.272556 -0.136404,0.272556 h -0.457207 c -0.345052,0 -0.457207,-0.04041 -0.553952,-0.240476 L 41.392263,36.97327 c -0.216478,-0.441041 -0.409465,-0.561278 -0.96266,-0.561278 h -0.593357 v 1.892734 c 0,0.200565 -0.06391,0.272556 -0.272557,0.272556 h -0.457963 c -0.200818,0 -0.272557,-0.07224 -0.272557,-0.272556 v -5.147995 c 0,-0.200564 0.072,-0.272555 0.272557,-0.272555 h 2.222882 c 1.114725,0 1.795988,0.656761 1.795988,1.764161"
       fill="#153827"
       style="fill:#ffffff;fill-opacity:1;stroke-width:0.2526" />
    <path
       id="Pfad_21587"
       data-name="Pfad 21587"
       d="m 46.749158,33.701843 c -0.81792,0 -1.283462,0.401129 -1.283462,1.146805 v 1.764414 c 0,0.745676 0.46529,1.146553 1.283462,1.146553 0.82575,0 1.283209,-0.400625 1.283209,-1.146553 v -1.764414 c 0,-0.745423 -0.457459,-1.146805 -1.283209,-1.146805 m 0,-0.937905 c 1.467355,0 2.28578,0.802006 2.28578,2.093046 v 1.747994 c 0,1.291293 -0.818425,2.093299 -2.28578,2.093299 -1.475438,0 -2.293863,-0.802006 -2.293863,-2.093299 v -1.747994 c 0,-1.29104 0.818172,-2.093046 2.293863,-2.093046"
       fill="#153827"
       style="fill:#ffffff;fill-opacity:1;stroke-width:0.2526" />
    <path
       id="Pfad_21588"
       data-name="Pfad 21588"
       d="m 55.930926,33.156731 v 5.1485 c 0,0.200565 -0.07224,0.272556 -0.272303,0.272556 h -0.417296 c -0.200312,0 -0.272303,-0.07224 -0.272303,-0.272556 V 35.85905 a 7.4721695,7.4721695 0 0 1 0.200313,-1.595929 h -0.05633 a 8.0698217,8.0698217 0 0 1 -0.665855,1.467608 l -0.78584,1.387281 a 0.29705796,0.29705796 0 0 1 -0.312719,0.192734 H 53.100288 A 0.28569094,0.28569094 0 0 1 52.787063,37.11801 l -0.801501,-1.394606 a 6.1672363,6.1672363 0 0 1 -0.625185,-1.459777 h -0.05683 a 7.5479495,7.5479495 0 0 1 0.176821,1.604264 v 2.437845 c 0,0.200565 -0.06442,0.272556 -0.273314,0.272556 h -0.392541 c -0.200818,0 -0.273061,-0.07224 -0.273061,-0.272556 v -5.149005 c 0,-0.200564 0.07224,-0.272555 0.273061,-0.272555 h 0.360966 c 0.224309,0 0.288722,0.04017 0.384963,0.208143 l 1.667162,2.98321 1.667162,-2.974874 a 0.32130758,0.32130758 0 0 1 0.360965,-0.216479 h 0.400877 c 0.200312,0 0.272304,0.07224 0.272304,0.272555"
       fill="#153827"
       style="fill:#ffffff;fill-opacity:1;stroke-width:0.2526" />
    <path
       id="Pfad_21589"
       data-name="Pfad 21589"
       d="m 62.995904,33.156731 v 5.1485 c 0,0.200565 -0.07224,0.272556 -0.272303,0.272556 h -0.417296 c -0.200311,0 -0.272302,-0.07224 -0.272302,-0.272556 V 35.85905 a 7.4719168,7.4719168 0 0 1 0.200311,-1.595929 h -0.05582 a 8.0698217,8.0698217 0 0 1 -0.665853,1.467608 l -0.78584,1.387281 A 0.29705796,0.29705796 0 0 1 60.41408,37.310744 H 60.165265 A 0.28569094,0.28569094 0 0 1 59.852041,37.11801 l -0.801754,-1.394606 a 6.1677415,6.1677415 0 0 1 -0.625185,-1.459777 h -0.05633 a 7.5648738,7.5648738 0 0 1 0.17682,1.604264 v 2.437845 c 0,0.200565 -0.06441,0.272556 -0.273061,0.272556 h -0.39254 c -0.200818,0 -0.273062,-0.07224 -0.273062,-0.272556 v -5.149005 c 0,-0.200564 0.07224,-0.272555 0.273062,-0.272555 h 0.36046 c 0.224562,0 0.288722,0.04017 0.384963,0.208143 l 1.667162,2.98321 1.667162,-2.974874 a 0.32130758,0.32130758 0 0 1 0.360461,-0.216479 h 0.401129 c 0.200311,0 0.272303,0.07224 0.272303,0.272555"
       fill="#153827"
       style="fill:#ffffff;fill-opacity:1;stroke-width:0.2526" />
    <path
       id="Pfad_21590"
       data-name="Pfad 21590"
       d="m 68.408876,33.156731 v 0.392794 c 0,0.200565 -0.06441,0.272556 -0.272303,0.272556 h -2.462601 v 1.403699 h 2.07688 c 0.208395,0 0.273061,0.07224 0.273061,0.272557 v 0.393046 c 0,0.200312 -0.06441,0.272555 -0.273061,0.272555 h -2.07688 v 1.475187 h 2.551263 c 0.200817,0 0.273314,0.07224 0.273314,0.27306 v 0.393046 c 0,0.200565 -0.0725,0.272556 -0.273314,0.272556 h -3.28052 c -0.200817,0 -0.273061,-0.07224 -0.273061,-0.272556 v -5.1485 c 0,-0.200564 0.07224,-0.272555 0.273061,-0.272555 h 3.191858 c 0.20789,0 0.272303,0.07224 0.272303,0.272555"
       fill="#153827"
       style="fill:#ffffff;fill-opacity:1;stroke-width:0.2526" />
    <path
       id="Pfad_21591"
       data-name="Pfad 21591"
       d="m 71.039203,33.156731 v 4.482646 h 2.301189 c 0.2089,0 0.273061,0.07224 0.273061,0.273061 v 0.393045 c 0,0.200566 -0.06416,0.272557 -0.273061,0.272557 h -3.031203 c -0.200313,0 -0.272304,-0.07224 -0.272304,-0.272557 v -5.148752 c 0,-0.200564 0.07224,-0.272555 0.272304,-0.272555 H 70.7669 c 0.20789,0 0.272303,0.07224 0.272303,0.272555"
       fill="#153827"
       style="fill:#ffffff;fill-opacity:1;stroke-width:0.2526" />
    <path
       id="Pfad_21592"
       data-name="Pfad 21592"
       d="m 77.262264,34.784993 a 3.7834473,3.7834473 0 0 1 -0.184651,-0.978321 h -0.06365 a 3.3166419,3.3166419 0 0 1 -0.168485,0.969985 l -0.617102,1.700253 h 1.643922 z m 2.180951,3.792036 h -0.416791 c -0.336715,0 -0.432957,-0.04799 -0.497117,-0.240476 l -0.368796,-1.035661 h -2.213285 l -0.376879,1.035661 c -0.06441,0.192481 -0.160654,0.240476 -0.497369,0.240476 h -0.368545 c -0.200817,0 -0.248811,-0.08841 -0.17682,-0.264725 l 1.997058,-5.212407 a 0.29301634,0.29301634 0 0 1 0.336464,-0.224562 h 0.425378 c 0.184399,0 0.272304,0.03991 0.336717,0.216478 l 2.004889,5.220491 c 0.06416,0.17682 0.01616,0.264725 -0.184652,0.264725"
       fill="#153827"
       style="fill:#ffffff;fill-opacity:1;stroke-width:0.2526" />
    <path
       id="Pfad_21593"
       data-name="Pfad 21593"
       d="m 85.184314,35.730728 v 1.074563 c 0,1.09098 -0.818172,1.892481 -2.285528,1.892481 -1.475943,0 -2.29361,-0.801753 -2.29361,-2.093046 v -1.756078 c 0,-1.283209 0.817667,-2.08471 2.29361,-2.08471 1.178634,0 1.876063,0.472868 2.180952,1.338782 0.06416,0.192481 0.01591,0.280639 -0.168484,0.35364 l -0.440788,0.15156 C 84.277984,34.68016 84.197405,34.64 84.125414,34.439436 83.940762,33.950149 83.564388,33.70159 82.898786,33.70159 c -0.833581,0 -1.291039,0.400877 -1.291039,1.138976 v 1.771991 c 0,0.746181 0.464784,1.146805 1.291039,1.146805 0.817667,0 1.290788,-0.400624 1.290788,-0.946241 V 36.39633 h -1.202883 c -0.200311,0 -0.272303,-0.07224 -0.272303,-0.280639 v -0.384963 c 0,-0.208142 0.07224,-0.272555 0.272303,-0.272555 h 1.924815 c 0.208395,0 0.273061,0.06441 0.273061,0.272555"
       fill="#153827"
       style="fill:#ffffff;fill-opacity:1;stroke-width:0.2526" />
    <path
       id="Pfad_21594"
       data-name="Pfad 21594"
       d="m 27.045577,32.886701 h -0.03284 c -3.43688,0.004 -5.493046,0.666612 -6.470861,2.085721 -0.889406,1.290787 -0.886628,3.142348 -0.884102,5.286419 0.0058,4.428841 0.0089,7.354458 7.340059,7.354458 h 0.03284 c 3.435365,-0.004 5.492289,-0.666865 6.469599,-2.085215 0.889659,-1.290788 0.886881,-3.143107 0.884101,-5.287178 -0.0048,-4.42884 -0.0086,-7.354205 -7.338796,-7.354205 M 26.997832,48.75 c -8.466403,0 -8.470951,-4.1237 -8.47676,-8.489643 -0.0025,-2.237282 -0.0048,-4.350283 1.086181,-5.933834 1.20743,-1.752794 3.560149,-2.571977 7.40422,-2.576523 h 0.0341 c 8.465899,0 8.470698,4.123447 8.475498,8.488633 0.0028,2.238292 0.0051,4.351546 -1.084918,5.934086 -1.207935,1.753552 -3.561664,2.572482 -7.404726,2.576523 z"
       fill="#153827"
       style="fill:#ffffff;fill-opacity:1;stroke-width:0.2526" />
    <path
       id="Pfad_21595"
       data-name="Pfad 21595"
       d="m 27.021833,36.923255 c -0.165201,0.412748 -0.351368,0.844694 -0.549153,1.302911 l -0.09599,0.222541 a 18.894502,18.894502 0 0 1 -1.370609,2.533834 2.4216791,2.4216791 0 1 0 4.046404,0.02526 l -0.01566,-0.02526 a 18.782096,18.782096 0 0 1 -1.37036,-2.533581 l -0.09776,-0.22734 c -0.196776,-0.456702 -0.382689,-0.88688 -0.546627,-1.29786 m 0,8.909969 A 3.50685,3.50685 0 0 1 24.0947,40.393225 17.835602,17.835602 0 0 0 25.380689,38.017266 l 0.09497,-0.221025 a 17.87046,17.87046 0 0 0 1.017474,-2.71217 0.54283805,0.54283805 0 0 1 1.013685,-0.116954 0.58274889,0.58274889 0 0 1 0.04345,0.11847 17.846716,17.846716 0 0 0 1.014948,2.705854 l 0.09776,0.22734 a 17.756286,17.756286 0 0 0 1.301396,2.399703 c 0.0035,0.0051 0.0068,0.01087 0.0101,0.01642 a 3.5073551,3.5073551 0 0 1 -2.953149,5.398321"
       fill="#153827"
       style="fill:#ffffff;fill-opacity:1;stroke-width:0.2526" />
    <path
       id="Pfad_21596"
       data-name="Pfad 21596"
       d="m 66.580049,47.590312 h 3.031204 c 0.208395,0 0.272556,-0.07224 0.272556,-0.272555 v -0.392794 c 0,-0.200565 -0.06417,-0.272556 -0.272556,-0.272556 H 67.309811 V 42.16951 c 0,-0.200565 -0.06416,-0.272556 -0.272555,-0.272556 h -0.457207 c -0.208395,0 -0.272555,0.07224 -0.272555,0.272556 v 5.148247 c 0,0.200564 0.06416,0.272555 0.272555,0.272555 m -4.875185,-2.101129 0.617607,-1.7 a 3.3194205,3.3194205 0 0 0 0.168484,-0.970237 h 0.06416 a 3.7758692,3.7758692 0 0 0 0.184398,0.97832 l 0.609525,1.692422 z m -1.532274,2.101129 h 0.368796 c 0.3448,0 0.432958,-0.04799 0.497118,-0.240475 l 0.384963,-1.035662 h 2.205201 l 0.376879,1.035662 c 0.05608,0.192481 0.15156,0.240475 0.497118,0.240475 h 0.417043 c 0.200564,0 0.240475,-0.08816 0.176819,-0.264725 L 63.091639,42.10535 c -0.05608,-0.176821 -0.15156,-0.216479 -0.336716,-0.216479 h -0.425126 a 0.29352155,0.29352155 0 0 0 -0.336716,0.224561 l -1.995543,5.212407 c -0.07224,0.176821 -0.02526,0.264726 0.176821,0.264726 m -2.718485,0 h 0.457207 c 0.208395,0 0.272555,-0.07224 0.272555,-0.272556 V 42.835365 H 59.581 c 0.208396,0 0.272556,-0.07224 0.272556,-0.272557 V 42.16951 c 0,-0.200565 -0.06416,-0.272556 -0.272556,-0.272556 h -3.794814 c -0.200564,0 -0.272555,0.07224 -0.272555,0.272556 v 0.393046 c 0,0.200565 0.07224,0.272556 0.272555,0.272556 h 1.395364 v 4.482645 c 0,0.200564 0.07224,0.272555 0.272556,0.272555 m -3.897118,0 h 0.456702 c 0.208395,0 0.272555,-0.07224 0.272555,-0.272555 V 42.16951 c 0,-0.200565 -0.06416,-0.272556 -0.272555,-0.272556 h -0.456702 c -0.2089,0 -0.273061,0.07224 -0.273061,0.272556 v 5.148247 c 0,0.200564 0.06417,0.272555 0.273061,0.272555 M 49.53938,47.71055 c 1.475439,0 2.293611,-0.802006 2.293611,-1.892482 v -1.074561 c 0,-0.208395 -0.07224,-0.272555 -0.280638,-0.272555 H 49.62779 c -0.200564,0 -0.272555,0.06416 -0.272555,0.272555 v 0.384963 c 0,0.208395 0.07224,0.280639 0.272555,0.280639 h 1.210967 v 0.417043 c 0,0.545364 -0.473121,0.94624 -1.299124,0.94624 -0.826003,0 -1.28321,-0.400876 -1.28321,-1.146805 v -1.772244 c 0,-0.737845 0.457207,-1.138721 1.28321,-1.138721 0.673686,0 1.050565,0.248558 1.22688,0.737845 0.07224,0.200565 0.160401,0.240475 0.353641,0.168484 l 0.432957,-0.15156 c 0.192481,-0.07224 0.240475,-0.160402 0.168484,-0.35364 -0.296806,-0.866167 -1.002318,-1.338782 -2.181204,-1.338782 -1.475439,0 -2.293611,0.802005 -2.293611,2.084963 v 1.75633 c 0,1.291039 0.81792,2.093046 2.293611,2.093046 M 45.009499,47.59107 h 0.457207 c 0.208395,0 0.272556,-0.07224 0.272556,-0.272556 V 42.16951 c 0,-0.200565 -0.06416,-0.272556 -0.272556,-0.272556 h -0.457207 c -0.208395,0 -0.272555,0.07224 -0.272555,0.272556 v 5.148247 c 0,0.200564 0.06416,0.272555 0.272555,0.272555 m -5.173506,-0.938157 v -3.81679 h 1.074562 c 0.85,0 1.315036,0.408959 1.315036,1.170801 v 1.475439 c 0,0.761843 -0.47312,1.170802 -1.315036,1.170802 z m -0.730267,0.938157 h 1.79624 c 1.490341,0 2.325691,-0.809836 2.325691,-2.117043 v -1.459524 c 0,-1.307207 -0.833581,-2.117043 -2.325691,-2.117043 h -1.79624 c -0.208396,0 -0.272557,0.07224 -0.272557,0.272555 v 5.1485 c 0,0.200564 0.06417,0.272555 0.272557,0.272555"
       fill="#ffffff"
       style="stroke-width:0.2526" />
  </g>
</svg>
